<svg width="88" viewBox="0 0 525 201" fill="none" xmlns="http://www.w3.org/2000/svg"><path d="M142.968 190.344c-4.864-11.52-6.4-28.928-6.4-46.592V.392c-17.152 4.864-34.816 7.168-49.152 14.08V63.88H85.88C32.12 63.88.632 95.112.632 139.656c0 35.072 20.224 61.184 50.944 61.184 19.2 0 32.768-9.216 39.424-22.528 2.56 8.448 6.4 16.384 10.752 22.272 15.872-1.024 29.696-4.352 41.216-10.24zM67.96 161.928c-10.496 0-16.896-11.008-16.896-26.88 0-22.272 10.752-34.304 29.952-34.304 2.048 0 4.352.256 6.4.512v34.048c0 15.616-8.96 26.624-19.456 26.624zm154.928 38.912c41.216 0 72.96-32 72.96-72.704 0-38.144-27.392-64.256-65.024-64.256-40.96 0-72.704 31.488-72.704 72.448 0 38.144 27.136 64.512 64.768 64.512zm4.096-38.912c-11.008 0-19.712-9.728-19.456-30.208 0-18.688 7.168-28.928 18.688-28.928 11.008 0 20.48 9.472 20.224 30.208 0 18.688-7.936 28.928-19.456 28.928zm138.784-9.984V.392c-17.152 4.864-34.816 7.168-49.152 14.08v137.472c0 26.368.512 41.728 1.024 45.824 16.128 1.536 32.512.768 49.92-1.792-.768-5.888-1.792-21.76-1.792-44.032zm85.87 48.896c41.216 0 72.96-32 72.96-72.704 0-38.144-27.392-64.256-65.024-64.256-40.96 0-72.704 31.488-72.704 72.448 0 38.144 27.136 64.512 64.768 64.512zm4.096-38.912c-11.008 0-19.712-9.728-19.456-30.208 0-18.688 7.168-28.928 18.688-28.928 11.008 0 20.48 9.472 20.224 30.208 0 18.688-7.936 28.928-19.456 28.928z" fill="#1B1440"/></svg>